<?xml version="1.0" encoding="UTF-8"?>
<svg id="Layer_1" xmlns="http://www.w3.org/2000/svg" xmlns:xlink="http://www.w3.org/1999/xlink" viewBox="0 0 1080 558.99">
  <defs>
    <style>
      .cls-1 {
        fill: url(#linear-gradient-2);
      }

      .cls-2 {
        fill: #fff;
      }

      .cls-3 {
        fill: url(#linear-gradient-4);
      }

      .cls-4 {
        fill: url(#linear-gradient-3);
      }

      .cls-5 {
        fill: url(#linear-gradient-5);
      }

      .cls-6 {
        fill: url(#linear-gradient);
      }
    </style>
    <linearGradient id="linear-gradient" x1="25.68" y1="54.99" x2="154.8" y2="184.1" gradientUnits="userSpaceOnUse">
      <stop offset="0" stop-color="#384397"/>
      <stop offset=".04" stop-color="#404095"/>
      <stop offset=".27" stop-color="#73308d"/>
      <stop offset=".5" stop-color="#9c2387"/>
      <stop offset=".7" stop-color="#b91a82"/>
      <stop offset=".87" stop-color="#cb147f"/>
      <stop offset="1" stop-color="#d2137f"/>
    </linearGradient>
    <linearGradient id="linear-gradient-2" x1="211" y1="16.35" x2="250.57" y2="240.81" xlink:href="#linear-gradient"/>
    <linearGradient id="linear-gradient-3" x1="363.16" y1="158.18" x2="427.35" y2="212.04" gradientUnits="userSpaceOnUse">
      <stop offset="0" stop-color="#384397"/>
      <stop offset="0" stop-color="#394296"/>
      <stop offset=".18" stop-color="#67348f"/>
      <stop offset=".35" stop-color="#8d2889"/>
      <stop offset=".52" stop-color="#ab1e84"/>
      <stop offset=".68" stop-color="#c01881"/>
      <stop offset=".84" stop-color="#cd147f"/>
      <stop offset="1" stop-color="#d2137f"/>
    </linearGradient>
    <linearGradient id="linear-gradient-4" x1="461.72" y1="406.39" x2="544.59" y2="406.39" gradientUnits="userSpaceOnUse">
      <stop offset=".01" stop-color="#384397"/>
      <stop offset=".1" stop-color="#573992"/>
      <stop offset=".23" stop-color="#7c2d8c"/>
      <stop offset=".36" stop-color="#9b2387"/>
      <stop offset=".5" stop-color="#b31c83"/>
      <stop offset=".64" stop-color="#c41781"/>
      <stop offset=".8" stop-color="#ce147f"/>
      <stop offset="1" stop-color="#d2137f"/>
    </linearGradient>
    <linearGradient id="linear-gradient-5" x1="1026.4" y1="73.13" x2="1026.4" y2="487.96" xlink:href="#linear-gradient"/>
  </defs>
  <path class="cls-2" d="M238.87,11.44c2.06,0,3.53,1.47,3.82,4.7l21.15,218.27c.29,3.23-1.18,4.7-4.41,4.7h-37.31c-2.64,0-4.12-1.47-4.41-4.7l-12.92-141-52.88,134.25c-1.18,2.94-3.23,4.41-6.17,4.41h-27.91c-2.64,0-4.7-1.47-6.17-4.41L59.08,93.4l-12.92,141c-.3,3.23-1.76,4.7-4.41,4.7H4.44c-3.23,0-4.7-1.47-4.41-4.7L21.19,16.44c.29-3.23,1.76-4.7,3.82-4.7h35.54c9.4,0,12.93,2.35,16.75,11.46l54.64,143.07L186.58,23.19c3.53-9.4,7.35-11.75,16.75-11.75h35.54Z"/>
  <path class="cls-2" d="M586.13,86.06c11.75,10.57,14.69,27.03,14.69,57.58v90.77c0,3.23-1.47,4.7-4.7,4.7h-34.66c-2.94,0-4.41-1.47-4.41-4.7v-79.61c0-22.03-.3-31.43-5.87-37.6-5-6.17-10.29-6.46-25.56-6.46h-26.74v123.67c0,3.23-1.47,4.7-4.41,4.7h-34.95c-2.94,0-4.41-1.47-4.41-4.7V82.53c0-3.52,1.47-3.82,4.41-4.41,14.98-3.23,38.19-4.99,70.21-4.99,29.67,0,44.94,2.35,56.4,12.93Z"/>
  <path class="cls-2" d="M754.48,89.58c9.69,10.87,14.39,32.6,14.69,65.21v9.11c0,5.87-2.05,7.93-9.4,7.93h-92.25c.3,12.93,2.35,21.45,6.76,25.27,4.41,3.82,13.22,5.87,26.44,5.87h52c2.94,0,4.41,1.47,4.41,4.41v24.39c0,2.64-1.47,4.41-4.11,4.7-13.22,2.64-31.73,4.11-56.11,4.11-29.67,0-49.35-5.58-59.04-16.75-9.69-11.16-14.69-33.49-14.69-66.98s5-56.11,14.69-66.98c9.69-11.16,29.38-16.74,59.04-16.74s48.18,5.58,57.58,16.45ZM667.23,143.34h58.16c-.29-25.56-7.05-32.6-28.49-32.6s-29.38,7.05-29.67,32.6Z"/>
  <path class="cls-2" d="M933.09,74.6c2.94,0,4.41,1.47,4.41,4.41v156.58c0,19.09-1.47,30.55-7.34,41.42-7.64,15.86-27.32,22.91-64.63,22.91-21.15,0-39.66-1.47-55.22-4.11-2.65-.3-4.12-2.06-4.12-4.7v-22.32c0-2.94,1.47-4.41,4.12-4.41h51.4c25.56,0,32.02-5.58,32.02-25.26v-1.76c-11.46,2.06-23.5,3.23-35.84,3.23-26.44,0-44.65-5.58-54.64-16.75-9.69-11.45-14.69-31.14-14.69-59.04v-85.78c0-2.94,1.47-4.41,4.41-4.41h34.95c2.94,0,4.41,1.47,4.41,4.41v77.55c0,19.09,2.06,31.43,6.47,37.31,4.41,5.87,14.1,8.81,28.78,8.81,10.87,0,19.39-.59,26.15-1.76v-121.91c0-2.94,1.47-4.41,4.41-4.41h34.95Z"/>
  <path class="cls-2" d="M436.74,263.9c2.94,0,4.41,1.47,4.41,4.41v17.33c0,2.94-1.47,4.41-4.41,4.41h-112.22v75.5h102.23c2.94,0,4.41,1.47,4.41,4.41v17.04c0,2.94-1.47,4.41-4.41,4.41h-102.23v68.74h112.22c2.94,0,4.41,1.47,4.41,4.41v17.33c0,2.94-1.47,4.41-4.41,4.41h-137.48c-2.94,0-4.41-1.47-4.41-4.41v-213.57c0-2.94,1.47-4.41,4.41-4.41h137.48Z"/>
  <path class="cls-2" d="M772.55,340.27c8.81,10.87,13.22,32.61,13.22,65.51s-4.41,54.93-12.92,65.81c-8.52,10.87-26.74,16.15-54.35,16.15-15.57,0-28.49-.59-38.77-1.76v57.16c0,2.94-1.47,4.41-4.41,4.41h-19.39c-2.94,0-4.41-1.47-4.41-4.41v-209.04c0-2.64,1.47-4.41,4.7-4.99,20.86-3.23,41.13-4.99,60.81-4.99,28.2,0,46.71,5.29,55.52,16.15ZM679.72,348.79v111.92c12.63,1.47,24.97,2.35,37.01,2.35,17.63,0,28.79-3.52,33.49-10.58,4.99-7.34,7.34-22.62,7.34-46.41s-2.35-39.07-7.05-46.42c-4.7-7.34-15.86-10.87-33.2-10.87h-37.6Z"/>
  <path class="cls-2" d="M871.26,324.12c14.69,0,26.14,1.17,34.66,3.52,17.33,4.41,27.61,17.92,30.85,37.9,1.76,9.69,2.64,23.21,2.64,40.54s-.88,30.85-2.64,40.83c-3.23,19.68-14.11,32.91-30.85,37.6-8.52,2.06-19.98,3.23-34.66,3.23s-26.44-1.17-34.96-3.23c-16.75-4.7-27.32-17.92-30.85-37.6-1.76-9.98-2.64-23.5-2.64-40.83s.88-30.85,2.64-40.54c3.52-19.98,13.81-33.49,31.14-37.9,8.52-2.35,19.97-3.52,34.66-3.52ZM838.06,359.66c-4.7,7.35-7.05,22.62-7.05,46.42s2.35,38.77,7.05,46.12c4.7,7.35,15.86,10.87,33.2,10.87s28.2-3.52,32.9-10.87c4.7-7.34,7.05-22.62,7.05-46.12s-2.35-39.07-7.05-46.42c-4.7-7.34-15.57-10.87-32.9-10.87s-28.49,3.52-33.2,10.87Z"/>
  <path class="cls-6" d="M131.94,166.26L77.3,23.19c-2.58-6.16-5.08-9.18-9.3-10.52l-8.92,80.74,52.47,133.95,20.39-61.09Z"/>
  <path class="cls-1" d="M238.87,11.44c2.06,0,3.53,1.47,3.82,4.7l21.15,218.27c.29,3.23-1.18,4.7-4.41,4.7h-37.31c-2.64,0-4.12-1.47-4.41-4.7l-12.92-141L238.87,11.44Z"/>
  <path class="cls-2" d="M299.03,226.23l28.68-43.12c-1.25-6.62-1.87-15.31-1.87-26.26,0-18.8,1.76-31.14,5.58-37.01,3.82-6.17,12.34-9.11,25.56-9.11,7.08,0,12.76.87,17.14,2.6l23.71-35.65c-10.11-3.35-23.15-4.55-40.86-4.55-30.26,0-50.53,5.58-60.22,16.74-9.69,10.87-14.69,33.2-14.69,66.98s4.99,56.11,14.69,67.27c.67.75,1.51,1.41,2.27,2.1Z"/>
  <path class="cls-4" d="M387.63,139.15c.52,5.08.79,10.96.79,17.7,0,18.8-2.06,31.14-5.88,37.31-3.82,5.87-12.34,8.81-25.56,8.81-4.08,0-7.66-.31-10.84-.87l-23.18,35.18c9.41,2.14,20.68,3.29,34.02,3.29,30.26,0,50.53-5.58,60.22-16.45,9.69-11.16,14.69-33.49,14.69-67.27s-2.7-52.02-13.17-64.89l-31.09,47.18Z"/>
  <path class="cls-3" d="M491.97,481.66l52.62-78.51-48.24-72.04c-1.88-3.13-1.25-4.59,2.3-4.59h-29.13c-3.55,0-4.17,1.46-2.3,4.59l48.24,72.04-52.62,78.51c-2.09,3.13-1.25,4.59,2.3,4.59h29.13c-3.55,0-4.38-1.46-2.3-4.59Z"/>
  <path class="cls-2" d="M639.72,481.66l-52.62-78.51,48.24-72.04c1.88-3.13,1.25-4.59-2.3-4.59h-22.55c-2.3,0-4.17,1.04-5.64,3.34l-33.46,51.33-33.46-51.33c-1.46-2.3-3.34-3.34-5.64-3.34h-22.55c-3.55,0-4.17,1.46-2.3,4.59l48.24,72.04-52.62,78.51c-2.09,3.13-1.25,4.59,2.3,4.59h22.55c2.3,0,4.18-1.04,5.64-3.34l37.85-57.81,37.85,57.81c1.46,2.3,3.34,3.34,5.64,3.34h22.55c3.55,0,4.38-1.46,2.3-4.59Z"/>
  <path class="cls-5" d="M1072.6,487.96h-92.4c-4.09,0-7.4-3.31-7.4-7.4V80.54c0-4.09,3.31-7.4,7.4-7.4h92.4c4.09,0,7.4,3.31,7.4,7.4v400.02c0,4.09-3.31,7.4-7.4,7.4ZM998.03,434.14c0,9.51,1.43,15.08,6,18.8,4.5,3.64,11.01,4.79,22.37,4.79s18.58-1.57,22.51-4.79c3.93-3.22,5.86-9.51,5.86-18.8,0-4.93-.43-9.22-1.36-12.94-.93-3.79-2.14-6.07-3.57-6.93-.36-.29-1.07-.43-2-.43h-19.73c-.79,0-1.21.36-1.21,1.07v10.22c0,.71.43,1.07,1.21,1.07h15.15v7.93c0,4.22-1.14,6.93-3.43,8.29-2.36,1.29-6.79,1.93-13.44,1.93s-11.08-.64-13.37-1.93c-2.36-1.36-3.5-4.07-3.5-8.29v-16.8c0-.71-.36-1.07-1.07-1.07h-6.93c-1.36,0-1.86.5-2.22,1.86-.86,3.5-1.29,8.86-1.29,16.01ZM998.46,390.9c0,.71.36,1.07,1.14,1.07h53.67c.79,0,1.14-.36,1.14-1.07v-34.38c0-.71-.36-1.07-1.07-1.07h-9.36c-.71,0-1.07.36-1.07,1.07v22.23h-43.31c-.79,0-1.14.36-1.14,1.07v11.08ZM998.03,315.85c0,9.51,1.5,15.08,6.07,18.87,4.5,3.72,11.15,4.93,22.37,4.93s18.44-1.64,22.37-4.93c3.93-3.36,5.93-9.65,5.93-18.87s-1.5-15.15-6-18.87c-4.5-3.79-11.08-5-22.3-5s-18.51,1.64-22.44,5c-4,3.29-6,9.58-6,18.87ZM1009.53,315.85c0-4.22,1.21-7,3.57-8.36,2.36-1.36,6.79-2.07,13.37-2.07s10.93.71,13.29,2.07c2.36,1.36,3.5,4.15,3.5,8.36s-1.14,7-3.5,8.36c-2.36,1.36-6.79,2.07-13.29,2.07s-11.01-.71-13.37-2.07c-2.36-1.36-3.57-4.15-3.57-8.36ZM998.03,248.1c0,6.86.29,13.79.86,20.8.07.71.36,1.07,1,1.07h53.03c.64,0,.93-.36,1-1.07.57-7,.86-14.37.86-22.16,0-7.36-1.14-12.51-3.43-15.58-2.29-3.07-6.29-4.57-12.01-4.57-8.5,0-12.15,2.64-12.79,10.08h-.21c-1.07-6.5-4.5-8.86-12.79-8.86-5.65,0-9.65,1.57-12.01,4.65-2.36,3.07-3.5,8.29-3.5,15.65ZM1009.53,249.53c0-6.07,1.57-8.29,6.22-8.29s6,2.14,6,8.93v6.57h-12.22v-7.22ZM1030.97,247.88c0-5.65,1.72-7.86,6.36-7.86s5.93,2.14,5.93,7.93v8.79h-12.29v-8.86ZM998.03,184.92c0,4.65.5,7.72,1.43,9.15.93,1.43,3.29,2.72,7.22,3.79l46.6,12.79c.79.14,1.14-.14,1.14-.93v-10.93c0-.43-.36-.71-1.14-.93l-14.44-4v-17.94l14.44-3.86c.79-.21,1.14-.5,1.14-1v-10.94c0-.79-.36-1.07-1.14-.93l-46.6,12.72c-3.93,1.07-6.29,2.36-7.22,3.79-.93,1.43-1.43,4.5-1.43,9.22ZM1009.03,184.99c0-.86.21-1,1.14-1.29l17.87-4.86v12.08l-17.87-4.79c-.93-.29-1.14-.36-1.14-1.14ZM998.46,138.82c0,.71.36,1.07,1.14,1.07h53.67c.79,0,1.14-.36,1.14-1.07v-34.38c0-.71-.36-1.07-1.07-1.07h-9.36c-.71,0-1.07.36-1.07,1.07v22.23h-43.31c-.79,0-1.14.36-1.14,1.07v11.08Z"/>
</svg>