<?xml version="1.0" encoding="UTF-8"?>
<svg id="Layer_1" xmlns="http://www.w3.org/2000/svg" xmlns:xlink="http://www.w3.org/1999/xlink" viewBox="0 0 64 64">
  <defs>
    <style>
      .cls-1 {
        fill: url(#linear-gradient);
      }
    </style>
    <linearGradient id="linear-gradient" x1="32" y1="65" x2="32" y2="3" gradientTransform="translate(0 66) scale(1 -1)" gradientUnits="userSpaceOnUse">
      <stop offset="0" stop-color="#d54799"/>
      <stop offset="1" stop-color="#5c3393"/>
    </linearGradient>
  </defs>
  <path class="cls-1" d="M32,63c-9.06,0-16.49-1.15-22.29-3.46-5.8-2.31-8.71-5.28-8.71-8.91V12.62c0-3.22,3.02-5.96,9.07-8.23,6.04-2.27,13.36-3.4,21.93-3.4s15.89,1.13,21.93,3.4c6.05,2.27,9.07,5.01,9.07,8.23v38.01c0,3.63-2.9,6.6-8.71,8.91-5.8,2.31-13.24,3.46-22.29,3.46ZM32,19.95c5.55,0,11.14-.77,16.78-2.32,5.64-1.55,9.02-3.23,10.12-5.06-1.06-1.92-4.38-3.69-9.96-5.29-5.58-1.6-11.23-2.41-16.94-2.41s-11.27.77-16.92,2.32c-5.65,1.55-9.03,3.24-10.13,5.08,1.05,1.94,4.38,3.7,9.98,5.29,5.6,1.59,11.29,2.38,17.07,2.38ZM32,39.45c2.66,0,5.28-.13,7.85-.39,2.57-.26,5.03-.64,7.37-1.15,2.34-.51,4.52-1.14,6.53-1.9,2.01-.76,3.81-1.62,5.38-2.58v-15.87c-1.58.96-3.37,1.81-5.39,2.57-2.01.76-4.18,1.39-6.53,1.9-2.34.51-4.8.9-7.37,1.15-2.57.26-5.18.39-7.85.39s-5.45-.14-8.06-.43c-2.61-.28-5.07-.68-7.39-1.19-2.32-.51-4.47-1.13-6.44-1.87-1.98-.74-3.73-1.58-5.24-2.53v15.87c1.52.96,3.26,1.8,5.24,2.53,1.98.73,4.12,1.36,6.44,1.87,2.31.51,4.78.91,7.39,1.19,2.61.28,5.29.42,8.06.42ZM32,59.12c3.32,0,6.48-.19,9.47-.57,2.99-.38,5.68-.91,8.07-1.6,2.39-.69,4.41-1.52,6.08-2.48,1.67-.96,2.84-2,3.51-3.12v-14.04c-1.58.96-3.37,1.81-5.39,2.57-2.01.76-4.18,1.39-6.53,1.9-2.34.51-4.8.89-7.37,1.15-2.57.26-5.18.39-7.85.39s-5.45-.14-8.06-.43c-2.61-.28-5.07-.68-7.39-1.19-2.32-.51-4.47-1.13-6.44-1.87-1.98-.73-3.73-1.58-5.24-2.53v14.06c.67,1.17,1.84,2.22,3.5,3.15,1.66.93,3.68,1.74,6.07,2.43,2.38.69,5.08,1.23,8.08,1.61,3,.38,6.16.57,9.48.57Z"/>
</svg>