<?xml version="1.0" encoding="UTF-8"?>
<svg id="Layer_1" xmlns="http://www.w3.org/2000/svg" xmlns:xlink="http://www.w3.org/1999/xlink" viewBox="0 0 64 64">
  <defs>
    <style>
      .cls-1 {
        stroke: url(#linear-gradient-2);
      }

      .cls-1, .cls-2, .cls-3, .cls-4, .cls-5, .cls-6, .cls-7, .cls-8, .cls-9 {
        fill: none;
      }

      .cls-1, .cls-3, .cls-4, .cls-5, .cls-6, .cls-7, .cls-8, .cls-9 {
        stroke-linecap: round;
        stroke-linejoin: round;
        stroke-width: 2px;
      }

      .cls-3 {
        stroke: url(#linear-gradient-3);
      }

      .cls-4 {
        stroke: url(#linear-gradient-4);
      }

      .cls-5 {
        stroke: url(#linear-gradient);
      }

      .cls-6 {
        stroke: url(#linear-gradient-5);
      }

      .cls-7 {
        stroke: url(#linear-gradient-6);
      }

      .cls-8 {
        stroke: url(#linear-gradient-8);
      }

      .cls-9 {
        stroke: url(#linear-gradient-7);
      }
    </style>
    <linearGradient id="linear-gradient" x1="32" y1="60.35" x2="32" y2="7.65" gradientTransform="translate(0 66) scale(1 -1)" gradientUnits="userSpaceOnUse">
      <stop offset="0" stop-color="#d54799"/>
      <stop offset="1" stop-color="#795da7"/>
    </linearGradient>
    <linearGradient id="linear-gradient-2" x1="32" y1="65" x2="32" y2="55.7" xlink:href="#linear-gradient"/>
    <linearGradient id="linear-gradient-3" x1="32" y1="12.3" x2="32" y2="3" xlink:href="#linear-gradient"/>
    <linearGradient id="linear-gradient-4" x1="5.65" y1="52.6" x2="5.65" y2="43.3" xlink:href="#linear-gradient"/>
    <linearGradient id="linear-gradient-5" x1="58.35" y1="52.6" x2="58.35" y2="43.3" xlink:href="#linear-gradient"/>
    <linearGradient id="linear-gradient-6" x1="58.35" y1="24.7" x2="58.35" y2="15.4" xlink:href="#linear-gradient"/>
    <linearGradient id="linear-gradient-7" x1="5.65" y1="24.7" x2="5.65" y2="15.4" xlink:href="#linear-gradient"/>
    <linearGradient id="linear-gradient-8" x1="32" y1="40.98" x2="32" y2="27.03" xlink:href="#linear-gradient"/>
  </defs>
  <rect class="cls-2" x="0" width="64" height="64"/>
  <path class="cls-5" d="M10.3,44.4l15.5-9.3M38.2,28.9l15.5-9.3M32,10.3v15.5M32,38.2v15.5M10.3,19.6l15.5,9.3M38.2,35.1l15.5,9.3M58.35,22.7v17.05M36.65,58.35l17.05-9.3M8.75,49.05l18.6,9.3M5.65,41.3v-18.6M8.75,14.95L27.35,5.65M55.25,14.95l-18.6-9.3"/>
  <path class="cls-1" d="M32,10.3c2.57,0,4.65-2.08,4.65-4.65s-2.08-4.65-4.65-4.65-4.65,2.08-4.65,4.65,2.08,4.65,4.65,4.65Z"/>
  <path class="cls-3" d="M32,63c2.57,0,4.65-2.08,4.65-4.65s-2.08-4.65-4.65-4.65-4.65,2.08-4.65,4.65,2.08,4.65,4.65,4.65Z"/>
  <path class="cls-4" d="M5.65,22.7c2.57,0,4.65-2.08,4.65-4.65s-2.08-4.65-4.65-4.65S1,15.48,1,18.05s2.08,4.65,4.65,4.65Z"/>
  <path class="cls-6" d="M58.35,22.7c2.57,0,4.65-2.08,4.65-4.65s-2.08-4.65-4.65-4.65-4.65,2.08-4.65,4.65,2.08,4.65,4.65,4.65Z"/>
  <path class="cls-7" d="M58.35,50.6c2.57,0,4.65-2.08,4.65-4.65s-2.08-4.65-4.65-4.65-4.65,2.08-4.65,4.65,2.08,4.65,4.65,4.65Z"/>
  <path class="cls-9" d="M5.65,50.6c2.57,0,4.65-2.08,4.65-4.65s-2.08-4.65-4.65-4.65-4.65,2.08-4.65,4.65,2.08,4.65,4.65,4.65Z"/>
  <path class="cls-8" d="M32,25.02l6.2,3.49v6.97l-6.2,3.49-6.2-3.49v-6.97l6.2-3.49Z"/>
</svg>