<?xml version="1.0" encoding="UTF-8"?>
<svg id="Layer_1" xmlns="http://www.w3.org/2000/svg" xmlns:xlink="http://www.w3.org/1999/xlink" viewBox="0 0 64 64">
  <defs>
    <style>
      .cls-1 {
        fill: url(#linear-gradient);
      }
    </style>
    <linearGradient id="linear-gradient" x1="32" y1="57.25" x2="32" y2="10.75" gradientTransform="translate(0 66) scale(1 -1)" gradientUnits="userSpaceOnUse">
      <stop offset="0" stop-color="#d54799"/>
      <stop offset="1" stop-color="#5c3393"/>
    </linearGradient>
  </defs>
  <path class="cls-1" d="M45.56,43.62c-.51,0-1.01.2-1.37.57-.36.36-.57.86-.57,1.37s.2,1.01.57,1.37c.36.36.86.57,1.37.57h7.75c.51,0,1.01-.2,1.37-.57.36-.36.57-.86.57-1.37s-.2-1.01-.57-1.37c-.36-.36-.86-.57-1.37-.57h-7.75ZM1,19.41c0-2.83,1.12-5.54,3.12-7.54,2-2,4.71-3.12,7.54-3.12h40.69c2.83,0,5.54,1.12,7.54,3.12,2,2,3.12,4.71,3.12,7.54v25.19c0,2.83-1.12,5.54-3.12,7.54-2,2-4.71,3.12-7.54,3.12H11.66c-2.83,0-5.54-1.12-7.54-3.12-2-2-3.12-4.71-3.12-7.54v-25.19ZM11.66,12.62c-1.8,0-3.52.71-4.8,1.99s-1.99,3-1.99,4.8v4.84h54.25v-4.84c0-1.8-.71-3.52-1.99-4.8-1.27-1.27-3-1.99-4.8-1.99H11.66ZM59.12,28.12H4.88v16.47c0,3.74,3.04,6.78,6.78,6.78h40.69c1.8,0,3.52-.71,4.8-1.99,1.27-1.27,1.99-3,1.99-4.8v-16.47Z"/>
</svg>