<?xml version="1.0" encoding="UTF-8"?>
<svg id="Layer_1" xmlns="http://www.w3.org/2000/svg" xmlns:xlink="http://www.w3.org/1999/xlink" viewBox="0 0 64 64">
  <defs>
    <style>
      .cls-1 {
        fill: url(#linear-gradient);
        fill-rule: evenodd;
      }
    </style>
    <linearGradient id="linear-gradient" x1="32" y1="51" x2="32" y2="17" gradientTransform="translate(0 66) scale(1 -1)" gradientUnits="userSpaceOnUse">
      <stop offset="0" stop-color="#d54799"/>
      <stop offset="1" stop-color="#5c3393"/>
    </linearGradient>
  </defs>
  <path class="cls-1" d="M26.26,17.04c3.13-.23,6.25.54,8.84,2.19,2.59,1.65,4.48,4.06,5.39,6.84.17.52.74.81,1.26.64.08-.03.15-.06.22-.1,1.26-.71,2.69-1.14,4.17-1.22,1.49-.09,2.97.17,4.33.74.23.1.45.2.66.32l-9.58,10.07c-.62-.33-1.32-.52-2.06-.52-.96,0-1.86.31-2.58.84l-8.56-7.17c.24-.5.38-1.07.38-1.67,0-2.27-1.95-4-4.21-4s-4.21,1.73-4.21,4c0,.72.2,1.38.53,1.96l-16.14,12.94c-1.18-1.68-1.75-3.7-1.62-5.73.16-2.4,1.29-4.67,3.17-6.3,1.58-1.37,3.58-2.2,5.69-2.39.15.21.38.36.66.4.43.06.84-.16,1.03-.52.33-.15.57-.48.59-.88,0-.26-.08-.49-.23-.67.62-2.39,1.97-4.59,3.91-6.3,2.27-2,5.22-3.23,8.35-3.46ZM37.42,39.3c.18-.05.36-.16.49-.32.14-.17.22-.37.23-.57.36-.26.83-.42,1.35-.42.38,0,.72.08,1.02.22.04.2.14.38.29.53.17.17.39.26.61.27.18.29.28.63.28.97,0,1.04-.92,2-2.21,2s-2.21-.96-2.21-2c0-.24.05-.48.14-.7ZM35.63,38.39l-8.58-7.19c-.71.51-1.59.81-2.53.81-.82,0-1.59-.23-2.25-.62l-16.24,13.02c1.59,1.48,3.68,2.4,5.93,2.6h42.74c1.6-.24,3.08-.97,4.19-2.07,1.13-1.12,1.83-2.56,2.01-4.1.17-1.53-.19-3.08-1.05-4.4-.69-1.07-1.67-1.94-2.83-2.52-.11.05-.23.08-.35.09-.55.04-1.03-.37-1.07-.92v-.06c-.09-.19-.12-.4-.08-.61-.2-1.23-.69-2.41-1.46-3.45-.37-.5-.79-.96-1.26-1.37l-9.76,10.26c.41.61.65,1.35.65,2.15,0,2.27-1.95,4-4.21,4s-4.21-1.73-4.21-4c0-.58.13-1.12.35-1.61ZM24.52,30c-.36,0-.7-.08-.99-.21-.02-.19-.09-.37-.22-.53-.19-.24-.48-.37-.77-.37-.15-.27-.23-.58-.23-.89,0-1.04.92-2,2.21-2s2.21.96,2.21,2-.92,2-2.21,2ZM12.02,26.46c.7-2.86,2.29-5.45,4.57-7.46,2.61-2.3,5.97-3.69,9.53-3.96,3.55-.26,7.1.62,10.06,2.5,2.62,1.67,4.65,4.05,5.81,6.82,1.26-.56,2.63-.89,4.03-.97,1.79-.11,3.59.2,5.23.89h0c.5.22.97.47,1.43.75.32-.08.68,0,.94.24.19.18.29.41.31.65.65.54,1.24,1.16,1.74,1.85.91,1.24,1.52,2.65,1.79,4.13,1.67.73,3.09,1.93,4.07,3.44,1.1,1.7,1.58,3.71,1.35,5.71-.22,2-1.14,3.86-2.59,5.29-1.45,1.43-3.35,2.36-5.39,2.64-.05,0-.09,0-.14,0H11.89s-.1,0-.15-.01c-3.02-.27-5.82-1.65-7.82-3.87-2.01-2.23-3.03-5.13-2.84-8.09.19-2.95,1.58-5.71,3.86-7.68,1.97-1.7,4.46-2.71,7.07-2.89Z"/>
</svg>